<?xml version="1.0" standalone="no"?>
<!DOCTYPE svg PUBLIC "-//W3C//DTD SVG 20010904//EN"
 "http://www.w3.org/TR/2001/REC-SVG-20010904/DTD/svg10.dtd">
<svg version="1.0" xmlns="http://www.w3.org/2000/svg"
 width="1920.000000pt" height="1920.000000pt" viewBox="0 0 1920.000000 1920.000000"
 preserveAspectRatio="xMidYMid meet">
<metadata>
Created by potrace 1.14, written by Peter Selinger 2001-2017
</metadata>
<g transform="translate(0.000000,1920.000000) scale(0.100000,-0.100000)"
fill="#000000" stroke="none">
<path d="M5900 15274 c-19 -2 -84 -9 -144 -14 -327 -32 -714 -133 -1049 -274
l-109 -46 -61 22 c-95 33 -277 37 -388 9 -599 -150 -1011 -995 -1190 -2446
l-23 -180 -57 -104 c-109 -196 -205 -462 -244 -681 -26 -143 -31 -400 -11
-536 82 -560 465 -1018 1133 -1352 636 -320 1622 -547 2730 -629 l232 -17 -30
-51 c-67 -111 -172 -341 -214 -467 -78 -239 -105 -437 -94 -698 16 -364 143
-723 388 -1093 113 -170 175 -237 253 -276 199 -100 349 51 428 429 10 52 28
169 39 260 12 91 30 199 42 240 40 147 135 292 236 361 24 17 46 29 48 27 2
-2 0 -46 -5 -98 -32 -331 10 -691 121 -1023 310 -932 1168 -1859 2200 -2378
308 -155 557 -245 849 -306 161 -34 415 -39 520 -10 149 40 256 121 323 244
201 370 67 986 -355 1629 -189 289 -381 519 -697 834 -399 398 -788 712 -1311
1056 -118 78 -230 157 -248 175 -41 43 -87 134 -108 219 -23 91 -15 238 20
347 15 45 31 85 36 88 5 3 57 -27 117 -66 260 -171 583 -296 932 -358 366 -66
875 -72 1321 -15 272 34 573 99 764 164 50 16 93 30 97 30 3 0 9 -28 13 -62
13 -123 48 -304 86 -453 172 -674 551 -1170 1106 -1448 419 -210 898 -347
1394 -398 161 -17 630 -17 775 0 507 58 747 195 810 462 42 179 1 421 -110
654 -69 143 -138 241 -254 356 -275 273 -687 458 -1276 573 -211 42 -322 55
-573 71 -406 25 -511 44 -660 115 -218 104 -390 261 -511 468 -17 29 -31 59
-31 66 0 7 19 28 43 46 23 19 68 59 99 88 52 50 59 53 77 41 11 -8 81 -62 158
-120 330 -252 680 -455 978 -565 508 -187 930 -141 1228 135 77 72 156 174
309 401 240 354 410 660 483 870 49 139 59 265 26 332 -37 76 -118 107 -238
88 -86 -13 -184 -46 -556 -182 -634 -231 -990 -337 -1291 -381 -43 -7 -42 -7
24 43 167 126 389 389 447 530 105 256 -154 274 -719 49 -54 -21 -100 -39
-103 -39 -2 0 13 31 33 69 36 67 37 70 24 117 -42 158 -175 245 -325 215 -102
-21 -93 -27 -132 84 -159 456 -459 807 -815 955 -81 33 -92 41 -126 91 -94
137 -285 338 -419 440 -271 208 -570 334 -906 383 -139 21 -421 21 -576 1
-207 -27 -455 -91 -659 -169 -85 -32 -94 -33 -189 -29 -170 9 -347 -33 -528
-124 l-89 -44 6 28 c31 150 64 447 78 700 28 508 -44 934 -204 1200 -49 82
-153 190 -234 243 -117 77 -303 125 -459 119 l-63 -2 -117 99 c-540 460 -1216
762 -1905 849 -117 15 -542 28 -620 19z m590 -50 c698 -79 1409 -397 1948
-873 l91 -81 111 0 c408 0 657 -231 770 -714 113 -478 57 -1284 -146 -2114
l-35 -145 25 -56 c24 -55 79 -227 110 -346 49 -191 64 -494 32 -672 -42 -234
-142 -430 -305 -598 -263 -272 -658 -440 -1221 -520 -235 -34 -418 -45 -747
-45 -444 0 -850 27 -1293 86 -1158 155 -2007 441 -2536 855 -110 86 -271 247
-345 344 -144 188 -240 402 -285 640 -25 125 -24 403 0 540 47 262 144 529
269 744 35 58 38 70 62 263 154 1225 461 1994 917 2300 183 123 423 160 615
96 l71 -24 52 23 c128 56 353 137 493 177 459 132 896 171 1347 120z m8412
-5055 c113 -60 -194 -489 -492 -688 -232 -155 -431 -216 -707 -216 -89 0 -164
3 -167 6 -3 3 45 57 106 120 139 141 256 285 365 451 l84 127 153 60 c342 134
575 183 658 140z m1575 -219 c51 -31 66 -71 60 -160 -15 -223 -230 -634 -630
-1205 -97 -137 -160 -209 -242 -275 -338 -268 -795 -261 -1380 24 -178 86
-311 163 -483 278 -118 79 -371 268 -391 292 -11 14 -6 24 40 73 29 32 83 99
120 148 l68 91 96 1 c187 3 346 40 513 119 84 40 117 49 242 69 341 55 579
125 1235 363 524 190 555 199 655 201 48 1 73 -4 97 -19z m-7452 -708 c126
-123 270 -246 335 -282 12 -7 9 -15 -17 -47 -108 -129 -209 -301 -252 -428
-72 -217 -55 -423 48 -583 36 -55 57 -72 277 -218 564 -377 931 -672 1325
-1064 224 -223 361 -378 516 -580 294 -385 494 -780 579 -1147 24 -103 28
-139 28 -288 1 -132 -3 -184 -17 -235 -42 -155 -137 -289 -242 -343 -153 -76
-399 -82 -687 -16 l-88 21 39 46 c54 65 88 137 102 216 47 272 -206 524 -480
476 -194 -34 -335 -188 -348 -381 -3 -43 -10 -79 -14 -79 -20 0 -259 138 -422
243 l-108 70 49 43 c63 55 92 116 92 190 0 78 -17 128 -62 178 -101 116 -275
120 -381 9 -21 -22 -46 -60 -55 -86 l-18 -47 -90 78 c-305 267 -598 607 -816
948 -100 156 -258 469 -313 617 -232 632 -210 1281 66 1925 93 217 244 480
379 660 56 76 59 78 151 115 52 20 132 59 179 86 47 27 87 49 90 50 3 1 73
-66 155 -147z m4538 -21 c16 -6 11 -16 -41 -84 -89 -116 -199 -234 -295 -315
-46 -40 -87 -72 -89 -72 -6 0 -42 97 -56 152 l-10 37 66 42 c75 47 236 164
296 216 40 33 85 42 129 24z m-5228 -166 c-242 -361 -420 -775 -490 -1142
l-18 -92 -58 -36 c-85 -52 -172 -153 -225 -260 -53 -108 -77 -204 -98 -387
-48 -417 -139 -641 -276 -678 -76 -20 -176 28 -251 122 -117 146 -332 517
-354 609 -6 25 -4 27 41 34 155 23 268 154 268 310 0 120 -59 218 -164 274
-87 46 -185 52 -272 16 -17 -7 -18 2 -18 101 1 195 35 393 105 594 37 109 161
369 215 453 l30 47 93 0 92 -1 -27 -20 c-56 -41 -57 -115 -2 -158 78 -61 185
29 140 118 -10 18 -24 35 -32 38 -42 16 7 22 197 23 286 1 495 18 754 61 118
19 344 71 388 89 48 19 43 6 -38 -115z m1170 -190 c295 -178 673 -302 1105
-362 159 -22 749 -25 935 -5 252 28 670 99 813 138 22 6 22 5 22 -98 0 -58 3
-125 6 -150 l6 -45 -73 -27 c-196 -70 -516 -140 -799 -175 -563 -70 -1081 -50
-1505 59 -186 47 -311 93 -480 175 -136 66 -345 197 -345 215 0 40 208 338
228 327 4 -2 43 -26 87 -52z m3551 -37 c116 -352 383 -626 731 -751 97 -35
238 -54 525 -72 278 -17 360 -26 548 -61 543 -99 949 -261 1232 -491 209 -170
353 -401 424 -679 64 -253 29 -452 -100 -579 -121 -118 -364 -197 -694 -226
-182 -16 -678 -7 -842 15 -565 76 -1158 283 -1512 528 -447 309 -749 811 -878
1458 -34 174 -59 390 -62 560 l-3 124 105 36 c142 49 244 93 375 161 61 32
113 58 117 58 3 1 19 -36 34 -81z"/>
<path d="M6424 15081 c-106 -48 -137 -182 -61 -268 17 -20 46 -42 64 -49 147
-62 296 94 224 234 -23 46 -46 67 -94 87 -48 20 -83 19 -133 -4z"/>
<path d="M5775 14904 c-67 -35 -95 -82 -95 -159 0 -152 185 -227 293 -118 111
111 33 293 -125 293 -24 0 -56 -7 -73 -16z"/>
<path d="M4700 14842 c0 -5 24 -29 54 -55 116 -100 249 -306 326 -507 40 -101
35 -94 54 -87 14 6 12 16 -10 79 -36 100 -116 257 -177 347 -69 103 -193 231
-223 231 -13 0 -24 -4 -24 -8z"/>
<path d="M5284 14841 c-12 -5 -31 -22 -44 -38 -58 -74 34 -182 119 -139 38 20
51 44 51 94 0 62 -68 107 -126 83z"/>
<path d="M6150 14645 c-219 -71 -242 -375 -36 -479 51 -26 64 -28 130 -24 90
6 151 38 194 101 55 80 66 154 35 242 -18 56 -86 129 -138 151 -52 21 -134 26
-185 9z"/>
<path d="M5403 14545 c-147 -88 -82 -318 90 -318 81 0 131 33 162 106 20 49
19 92 -5 141 -43 90 -159 123 -247 71z"/>
<path d="M6822 14556 c-78 -26 -151 -93 -190 -176 -70 -148 0 -335 154 -411
69 -34 186 -34 262 0 66 30 144 113 166 177 68 201 -71 409 -282 420 -40 2
-84 -2 -110 -10z"/>
<path d="M8342 14215 c-237 -124 -385 -265 -427 -402 -5 -18 -2 -23 13 -23 13
0 22 9 27 28 27 110 193 255 438 382 59 31 104 59 100 63 -15 16 -54 4 -151
-48z"/>
<path d="M7497 14189 c-77 -18 -142 -70 -179 -142 -64 -126 -2 -291 130 -350
56 -24 151 -26 204 -3 96 41 158 136 158 241 0 166 -155 292 -313 254z"/>
<path d="M4379 13879 c-212 -29 -450 -173 -622 -377 -216 -257 -345 -571 -378
-921 -21 -218 17 -459 100 -636 22 -47 37 -85 33 -85 -4 0 -29 7 -57 15 -117
36 -245 41 -245 9 0 -10 13 -14 48 -14 250 -1 599 -220 872 -548 73 -88 92
-103 105 -82 7 11 -68 103 -169 208 l-60 62 100 0 c221 0 434 95 627 279 129
123 221 249 307 422 184 366 224 796 106 1141 -126 370 -424 574 -767 527z
m226 -44 c484 -101 709 -745 489 -1404 -74 -222 -187 -413 -338 -569 -145
-150 -261 -227 -426 -283 -86 -29 -107 -33 -215 -33 -140 -1 -147 1 -276 107
-46 38 -119 89 -162 115 -85 50 -109 75 -155 167 -137 276 -147 660 -26 1025
192 577 682 964 1109 875z"/>
<path d="M4445 13428 c-38 -4 -88 -13 -110 -21 l-39 -14 34 -6 c45 -10 99 -52
116 -93 30 -71 10 -160 -46 -208 -45 -37 -85 -35 -110 7 -11 17 -20 40 -20 50
0 24 -11 22 -58 -13 -23 -16 -47 -30 -52 -30 -16 0 -50 80 -50 117 0 17 4 43
10 58 9 23 8 25 -9 15 -31 -16 -150 -141 -197 -206 -62 -86 -130 -236 -161
-351 -23 -85 -26 -118 -26 -253 -1 -140 2 -163 26 -243 42 -136 84 -212 167
-300 242 -259 631 -227 917 77 127 135 214 306 253 496 18 87 21 128 17 240
-5 158 -22 230 -80 350 -33 67 -58 102 -122 165 -135 136 -272 184 -460 163z
m100 -1204 c26 -10 44 -62 33 -94 -9 -27 -44 -50 -77 -50 -30 0 -61 38 -61 75
0 58 50 90 105 69z"/>
<path d="M6548 13858 c-75 -20 -137 -122 -119 -198 12 -54 28 -78 73 -110 73
-53 180 -36 235 37 31 40 41 113 24 166 -15 45 -68 93 -118 106 -43 12 -45 12
-95 -1z"/>
<path d="M8000 13463 c-216 -36 -427 -204 -573 -458 -192 -332 -239 -805 -122
-1210 93 -321 291 -581 525 -693 44 -20 79 -39 79 -42 0 -3 -21 -21 -46 -40
-53 -40 -126 -127 -120 -144 7 -21 25 -11 64 37 77 93 206 172 358 220 140 44
214 52 458 52 163 0 227 3 227 11 0 18 -22 23 -136 30 l-105 7 39 41 c469 485
462 1483 -13 1962 -159 161 -327 236 -521 233 -49 -1 -100 -4 -114 -6z m225
-38 c208 -37 419 -205 549 -436 251 -446 247 -1073 -10 -1500 -52 -86 -159
-219 -197 -243 -12 -8 -71 -20 -132 -26 -60 -6 -149 -20 -197 -30 -85 -18
-233 -72 -253 -91 -17 -17 -49 -9 -140 35 -574 282 -758 1286 -350 1916 130
201 319 341 507 375 95 17 127 17 223 0z"/>
<path d="M7835 13035 c-238 -66 -414 -260 -502 -555 -31 -104 -43 -333 -24
-446 38 -218 128 -395 270 -526 117 -108 241 -158 396 -158 193 -1 353 85 484
260 185 245 238 604 136 916 -20 59 -88 199 -114 233 l-19 25 5 -26 c7 -37
-14 -94 -49 -134 -17 -19 -33 -34 -37 -34 -4 0 -26 23 -48 50 -37 45 -42 48
-48 31 -9 -30 -53 -61 -86 -61 -63 0 -100 131 -59 214 29 60 76 89 146 90 53
1 53 1 31 19 -39 31 -155 87 -214 102 -70 18 -201 18 -268 0z m-42 -1172 c29
-33 31 -68 4 -98 -46 -54 -127 -27 -127 42 0 20 8 41 20 53 25 25 81 26 103 3z"/>
<path d="M5595 11804 c-16 -2 -66 -9 -110 -15 -104 -13 -266 -52 -380 -89
-107 -36 -120 -43 -112 -63 5 -14 16 -12 80 13 202 78 473 123 737 124 453 0
843 -120 1234 -382 87 -57 143 -89 149 -83 15 15 2 27 -136 119 -278 185 -547
295 -867 353 -90 17 -164 22 -340 24 -124 2 -238 1 -255 -1z"/>
<path d="M5584 11524 c-40 -60 -6 -284 52 -354 31 -37 48 -38 70 -5 14 21 16
44 12 128 -6 110 -29 191 -69 233 -29 31 -44 30 -65 -2z"/>
<path d="M6695 11379 c-56 -67 -95 -180 -95 -275 0 -67 7 -84 34 -84 64 0 146
172 146 305 0 90 -35 112 -85 54z"/>
<path d="M4664 10948 c-5 -7 10 -27 37 -51 70 -61 340 -277 382 -305 30 -20
37 -30 32 -46 -16 -59 -17 -185 -1 -265 37 -182 107 -314 232 -438 68 -67 100
-90 176 -127 128 -61 221 -80 362 -73 161 8 296 56 451 160 128 87 342 321
429 469 24 41 29 44 142 82 104 36 378 160 411 188 9 7 10 15 3 23 -7 8 -46
-7 -153 -60 -239 -119 -384 -161 -680 -200 -152 -19 -448 -19 -587 0 -219 31
-427 95 -590 182 -93 49 -318 215 -505 372 -66 55 -123 101 -127 101 -4 0 -10
-5 -14 -12z m1592 -913 c38 -22 144 -138 144 -156 0 -13 -153 -112 -225 -145
-238 -110 -507 -96 -711 38 -82 53 -81 46 -33 140 65 129 144 166 249 117 28
-14 74 -23 122 -27 65 -4 80 -8 91 -26 23 -35 47 -117 47 -158 0 -21 5 -38 10
-38 20 0 4 145 -24 211 -6 13 9 21 81 42 118 34 193 35 249 2z"/>
<path d="M15935 9511 c-113 -51 -149 -184 -78 -284 65 -93 198 -106 287 -28
49 43 70 142 45 208 -24 64 -109 123 -179 123 -19 0 -53 -9 -75 -19z"/>
<path d="M14873 9379 c-92 -59 -68 -201 40 -230 32 -8 45 -7 80 10 75 37 99
116 54 182 -41 61 -114 77 -174 38z"/>
<path d="M15410 9363 c-78 -41 -120 -111 -120 -200 0 -99 39 -166 123 -208
208 -103 421 128 299 325 -39 63 -107 103 -186 108 -52 3 -69 0 -116 -25z"/>
<path d="M14989 9022 c-129 -83 -114 -268 26 -333 55 -25 102 -24 161 6 65 33
97 80 102 154 5 70 -20 126 -74 168 -30 22 -49 28 -103 31 -59 3 -71 0 -112
-26z"/>
<path d="M14653 8950 c-122 -62 -76 -240 63 -240 60 0 124 68 124 131 0 32
-29 86 -54 103 -41 26 -87 29 -133 6z"/>
<path d="M15604 8820 c-39 -15 -74 -68 -74 -111 0 -124 143 -182 224 -91 27
31 33 107 11 148 -28 53 -103 78 -161 54z"/>
<path d="M14386 8598 c-24 -34 -20 -73 10 -97 15 -12 35 -21 46 -21 27 0 68
45 68 75 0 59 -91 90 -124 43z"/>
<path d="M14664 8586 c-17 -8 -41 -28 -54 -46 -33 -47 -25 -123 18 -161 86
-77 212 -23 212 90 0 97 -88 155 -176 117z"/>
<path d="M9896 6175 c-87 -31 -138 -122 -116 -206 38 -142 224 -176 313 -57
24 33 33 114 18 161 -15 45 -68 93 -118 106 -47 13 -49 13 -97 -4z"/>
<path d="M9234 5991 c-73 -33 -111 -106 -99 -189 5 -38 15 -55 51 -89 88 -85
222 -64 274 43 47 95 7 197 -92 239 -49 20 -84 19 -134 -4z"/>
<path d="M8710 5902 c-48 -48 -40 -120 17 -150 39 -21 82 -14 115 18 27 27 30
36 25 72 -3 22 -14 50 -25 60 -10 11 -38 22 -60 25 -36 5 -45 2 -72 -25z"/>
<path d="M9580 5719 c-164 -74 -206 -293 -79 -417 57 -56 105 -76 184 -76 109
0 195 56 238 154 25 55 26 148 3 202 -56 131 -218 195 -346 137z"/>
<path d="M8905 5653 c-31 -8 -85 -52 -106 -87 -23 -38 -25 -125 -4 -166 25
-49 80 -83 140 -88 135 -11 230 127 171 250 -31 66 -130 110 -201 91z"/>
<path d="M10283 5642 c-230 -75 -299 -367 -124 -525 73 -66 115 -82 216 -82
78 0 97 4 141 27 109 57 168 156 169 283 0 73 -3 85 -36 145 -43 78 -108 131
-189 154 -70 20 -111 19 -177 -2z"/>
<path d="M10960 5281 c-83 -19 -135 -57 -178 -130 -38 -64 -39 -173 -2 -245
78 -153 289 -186 412 -64 92 93 101 249 19 348 -57 70 -168 109 -251 91z"/>
<path d="M9965 4925 c-99 -65 -111 -188 -28 -269 55 -53 141 -65 210 -28 75
40 105 160 61 236 -35 60 -68 79 -141 84 -54 3 -67 0 -102 -23z"/>
<path d="M6724 8796 c-17 -8 -44 -31 -60 -52 -25 -33 -29 -46 -29 -104 0 -57
4 -72 28 -103 36 -47 76 -68 135 -69 119 -3 203 98 173 210 -14 56 -37 85 -82
111 -43 24 -118 27 -165 7z"/>
<path d="M7202 8693 c-74 -36 -132 -143 -117 -217 36 -177 244 -237 362 -103
68 78 68 186 0 264 -60 68 -170 93 -245 56z"/>
<path d="M6789 8366 c-52 -14 -96 -43 -134 -87 -39 -47 -55 -95 -55 -163 0
-148 109 -256 256 -256 152 0 259 108 258 260 0 117 -72 211 -187 245 -59 18
-77 18 -138 1z"/>
<path d="M7119 7927 c-64 -24 -109 -58 -148 -111 -44 -58 -49 -72 -61 -141
-20 -120 37 -244 143 -311 156 -100 368 -38 448 130 24 51 29 74 29 137 0 64
-5 85 -30 137 -34 66 -77 110 -143 144 -53 27 -184 35 -238 15z"/>
<path d="M15060 7578 c-19 -5 -52 -26 -73 -46 -68 -66 -73 -163 -11 -232 45
-49 81 -64 148 -58 94 8 156 76 156 170 0 111 -113 196 -220 166z"/>
<path d="M14400 7394 c-45 -20 -68 -41 -91 -86 -58 -114 26 -247 156 -248 67
0 127 37 155 97 25 53 25 96 1 148 -22 49 -48 73 -98 91 -49 17 -80 17 -123
-2z"/>
<path d="M13876 7309 c-38 -30 -49 -64 -36 -105 15 -43 45 -64 93 -64 71 0
116 74 83 135 -31 56 -93 71 -140 34z"/>
<path d="M14734 7116 c-99 -46 -164 -162 -149 -264 33 -220 290 -307 444 -150
49 49 64 85 69 163 4 58 0 80 -18 123 -56 131 -214 189 -346 128z"/>
<path d="M14060 7048 c-49 -13 -106 -71 -120 -122 -22 -81 29 -181 107 -207
119 -39 233 42 233 166 0 78 -50 143 -128 165 -43 12 -45 11 -92 -2z"/>
<path d="M15451 7045 c-70 -20 -138 -69 -178 -129 -42 -62 -56 -115 -51 -196
12 -209 224 -344 423 -269 128 48 217 191 201 322 -25 194 -212 322 -395 272z"/>
<path d="M16140 6683 c-94 -15 -170 -69 -206 -147 -48 -103 -22 -232 61 -305
54 -47 100 -64 172 -64 154 -1 277 136 258 288 -13 106 -100 205 -194 221 -20
3 -43 7 -51 8 -8 2 -26 1 -40 -1z"/>
<path d="M15123 6325 c-75 -45 -102 -138 -64 -221 59 -129 237 -135 308 -9 87
153 -92 321 -244 230z"/>
</g>
</svg>
